<svg width="591" height="108" viewBox="0 0 591 108" fill="none" xmlns="http://www.w3.org/2000/svg">
<g clip-path="url(#clip0_1_1372)">
<path d="M43.9288 77.6007V106.122H0.000793457V104.523H7.67204V1.4535H0.000793457V0H43.1051V28.3755H41.9585C41.9585 3.7145 32.4623 1.7119 20.4144 1.72805V51.0178C31.7678 51.0178 32.7368 42.8621 32.7368 31.5086H33.8027V71.0761H32.7207C32.7207 59.7065 31.7517 52.1161 20.4144 52.1161V104.313C32.4461 104.313 42.7983 101.745 42.7983 77.6007H43.9126" fill="white"/>
<path d="M341.041 77.6007V106.122H297.129V104.523H304.8V1.4535H297.129V0H340.217V28.3755H339.086C339.086 3.7145 329.574 1.7119 317.542 1.72805V51.0178C328.896 51.0178 329.865 42.8621 329.865 31.5086H330.931V71.0761H329.849C329.849 59.7065 328.88 52.1161 317.526 52.1161V104.313C329.558 104.313 339.91 101.745 339.91 77.6007H341.041Z" fill="white"/>
<path d="M118.753 104.539C130.752 104.539 141.169 101.745 141.169 77.6007H142.267V106.105H98.2908V104.49H106.043V1.46965H98.2908V0H126.473V1.2597H118.737V104.539" fill="white"/>
<path d="M219.979 104.539C232.011 104.539 242.38 101.745 242.38 77.6007H243.494V106.122H199.517V104.49H207.253V1.46965H199.517V0H227.699V1.2597H219.979V104.539Z" fill="white"/>
<path d="M436.663 69.526C436.857 79.4259 435.791 87.5655 428.944 95.3337C422.128 103.102 411.76 107.527 401.343 107.527C380.413 107.527 362.971 90.4887 362.971 69.9297C362.971 49.3708 380.413 31.8965 401.844 31.8965C414.909 31.8965 425.471 37.6297 433.401 47.7073L427.377 53.2468C421.127 44.6388 412.761 39.4547 401.763 39.4547C384.757 39.4547 371.304 53.5536 371.304 70.0105C371.304 77.7786 374.486 85.1592 380.009 90.6663C385.452 96.012 393.381 100.001 401.182 100.001C414.118 100.001 427.765 90.6663 427.765 77.1003H405.655V69.526H436.679" fill="#C5D22D"/>
<path d="M520.014 69.8328C520.014 90.8763 502.443 107.527 481.173 107.527C459.904 107.527 442.317 90.8601 442.317 69.8328C442.317 48.8055 459.936 31.8965 481.173 31.8965C502.411 31.8965 520.03 48.8863 520.03 69.8328M450.634 69.7359C450.634 86.2251 464.281 99.9849 481.173 99.9849C498.066 99.9849 511.745 86.2089 511.745 69.7521C511.745 53.2952 498.309 39.4547 481.173 39.4385C464.071 39.4385 450.634 53.166 450.634 69.7359Z" fill="#C5D22D"/>
<path d="M590.945 39.713V32.1387H557.013L557.03 97.7077H536.293V32.1387H527.976V105.266H565.314V68.993H590.137V61.4509H565.314V39.713H590.945Z" fill="#C5D22D"/>
</g>
<defs>
<clipPath id="clip0_1_1372">
<rect width="590.945" height="107.543" fill="white"/>
</clipPath>
</defs>
</svg>
