<svg width="400" height="108" viewBox="0 0 400 108" fill="none" xmlns="http://www.w3.org/2000/svg">
<g clip-path="url(#clip0_1_1455)">
<path d="M147.27 15.0246V2.30457H118.51V46.0196H90.78V23.5246C90.78 19.0846 92.205 14.8796 95.825 13.6846C98.085 12.9396 101.8 13.1546 106.065 16.2696L111.27 4.48956C109.515 2.96456 100.855 -2.34044 89.735 1.18457C85.035 2.58957 80.84 5.83457 78.72 10.9346C77.2 14.5496 76.885 18.7746 76.885 22.7196C76.78 30.1546 76.78 45.4596 76.78 46.0196H67.84V58.7946H76.78C76.885 73.0246 76.885 95.3596 76.885 105.525H90.78V58.7946H118.51V105.525H132.42V58.7946H147.19V46.0196H132.42V15.0246H147.27Z" fill="white"/>
<path d="M385.44 2.28125V52.8113C384.405 51.8763 383.58 51.1963 382.81 50.5013C372.51 41.5613 357.87 43.0312 349.425 50.6263C342.83 56.4013 339.285 63.8413 338.665 72.5813C338.115 81.5113 339.955 89.9313 345.63 97.2213C354.62 108.611 371.91 110.851 382.95 101.556C383.66 100.966 384.5 100.141 385.44 99.4613V105.521H399.18V2.28125H385.44ZM383.48 87.2262C379.84 93.1263 374.395 95.5963 367.52 94.9163C360.715 94.2663 356.365 90.2813 354.08 84.1063C352.125 79.0013 351.965 73.6113 353.81 68.4313C357.98 56.4062 369.62 54.4412 377.49 58.8013C382.395 61.4212 384.885 65.9562 385.925 71.3112C386.145 72.8412 386.24 74.4213 386.34 75.3863C386.24 79.9863 385.545 83.7363 383.475 87.2313" fill="white"/>
<path d="M315.77 52.8144C315.03 52.0894 314.435 51.6544 313.92 51.1994C302.705 40.6394 285.58 42.9344 276.55 53.7144C271.665 59.5694 269.295 66.1294 268.965 73.5194C268.54 82.7894 270.625 91.1794 276.89 98.2244C283.03 105.299 290.93 108.014 300.205 107.129C305.785 106.554 310.505 103.929 314.685 100.334C314.96 100.099 315.255 99.7794 315.765 99.4644V105.599H329.5V46.0844H315.765V52.8144H315.77ZM312.61 88.9244C306.34 97.2194 293.265 97.2194 286.97 88.9244C283.49 84.1394 282.59 78.8444 283.08 73.2444C283.49 68.5344 285.33 64.5244 288.67 61.0944C295.255 54.4394 309.305 54.7794 314.695 66.2844C316.075 69.3794 316.695 72.5794 316.65 75.8744C316.65 80.6194 315.56 85.0294 312.615 88.9244" fill="white"/>
<path d="M229.015 44.2344C211.54 44.2344 196.965 58.3294 197.205 75.4344C196.97 93.7444 211.54 107.479 228.76 107.404C246.95 107.209 260.625 93.9544 260.83 76.1044C261.085 58.4144 246.75 44.2894 229.015 44.2394M244.655 85.9394C241.26 92.4344 235.625 95.2244 228.575 95.0844C219.1 94.8444 212.625 88.7744 211.44 79.4294C211.07 75.8744 211.17 72.4394 212.13 68.9994C214.325 61.6544 220.62 56.9594 228.18 56.7844C235.255 56.5744 240.82 59.2244 244.45 65.4594C245.955 68.1844 246.79 71.9494 246.79 75.1344C246.84 79.4244 246.255 82.8744 244.655 85.9344" fill="white"/>
<path d="M31.805 44.2344C14.21 44.2344 -0.405001 58.5194 0.00999933 75.5444C-0.240001 93.6244 14.125 107.404 31.545 107.404C48.965 107.404 63.615 93.5144 63.695 76.0044C63.735 58.5244 49.535 44.2894 31.81 44.2394M45.385 89.0644C41.77 93.5144 36.9 95.2244 31.375 95.0844C21.845 94.8444 15.28 88.6694 14.215 79.2594C13.845 75.8794 13.99 72.4394 14.86 69.2544C17.04 61.6594 23.295 56.9644 31.075 56.7894C38.1 56.5794 43.585 59.1994 47.17 65.3944C49.075 68.6644 49.535 72.2344 49.66 76.0894C49.54 80.6894 48.555 85.2744 45.385 89.0644Z" fill="white"/>
<path d="M184.335 44.4098C179.335 44.8048 175.825 47.7148 172.55 51.1998C172.505 51.1248 172.41 51.0798 172.41 51.0098V46.0798H158.815V105.665H172.41V74.2348C172.41 70.4398 172.805 66.6598 174.545 63.1448C176.715 58.7948 180.9 56.9548 185.855 58.0048C187.81 58.3348 189.565 59.4648 191.53 60.1548C193.515 56.1548 195.605 52.0798 197.725 47.8748C193.51 45.3698 189.11 43.9598 184.335 44.4148" fill="white"/>
</g>
<defs>
<clipPath id="clip0_1_1455">
<rect width="399.18" height="107.405" fill="white"/>
</clipPath>
</defs>
</svg>
