<svg width="120" height="32" viewBox="0 0 120 32" fill="none" xmlns="http://www.w3.org/2000/svg">
<path d="M44.5431 4.47794V0.688175H35.9744V13.7125H27.7126V7.01041C27.7126 5.68757 28.1372 4.43474 29.2157 4.07871C29.8891 3.85674 30.9959 3.9208 32.2666 4.84888L33.8174 1.33917C33.2945 0.884814 30.7143 -0.695745 27.4013 0.354485C26.001 0.773088 24.7511 1.7399 24.1195 3.25938C23.6666 4.33642 23.5728 5.59521 23.5728 6.77057C23.5415 8.98574 23.5415 13.5457 23.5415 13.7125H20.8779V17.5187H23.5415C23.5728 21.7583 23.5728 28.4128 23.5728 31.4413H27.7126V17.5187H35.9744V31.4413H40.1187V17.5187H44.5193V13.7125H40.1187V4.47794H44.5431Z" fill="white"/>
<path d="M115.502 0.679688V15.7345C115.193 15.4559 114.948 15.2533 114.718 15.0462C111.649 12.3827 107.288 12.8207 104.772 15.0835C102.807 16.8041 101.75 19.0207 101.566 21.6247C101.402 24.2853 101.95 26.7939 103.641 28.9659C106.319 32.3594 111.471 33.0268 114.76 30.2575C114.971 30.0817 115.222 29.8359 115.502 29.6333V31.4388H119.595V0.679688H115.502ZM114.918 25.988C113.833 27.7458 112.211 28.4817 110.163 28.2791C108.135 28.0855 106.839 26.8982 106.158 25.0584C105.576 23.5375 105.528 21.9316 106.078 20.3883C107.32 16.8056 110.788 16.2201 113.133 17.5191C114.595 18.2997 115.336 19.6509 115.646 21.2463C115.712 21.7022 115.74 22.1729 115.77 22.4604C115.74 23.8309 115.533 24.9482 114.916 25.9895" fill="white"/>
<path d="M94.7449 15.7357C94.5245 15.5197 94.3472 15.39 94.1938 15.2545C90.8524 12.1083 85.7502 12.792 83.0598 16.0038C81.6044 17.7482 80.8983 19.7027 80.8 21.9045C80.6733 24.6663 81.2946 27.166 83.1611 29.265C84.9905 31.3729 87.3442 32.1818 90.1075 31.9181C91.77 31.7468 93.1763 30.9647 94.4217 29.8937C94.5036 29.8236 94.5915 29.7283 94.7435 29.6344V31.4623H98.8356V13.7305H94.7435V15.7357H94.7449ZM93.8035 26.4942C91.9354 28.9656 88.0399 28.9656 86.1643 26.4942C85.1275 25.0686 84.8594 23.491 85.0054 21.8225C85.1275 20.4192 85.6757 19.2245 86.6708 18.2026C88.6328 16.2198 92.8188 16.3211 94.4247 19.7489C94.8358 20.671 95.0205 21.6244 95.0071 22.6061C95.0071 24.0198 94.6824 25.3337 93.8049 26.4942" fill="white"/>
<path d="M68.8953 13.1787C63.6888 13.1787 59.3464 17.3781 59.4179 22.4744C59.3478 27.9296 63.6888 32.0218 68.8193 31.9994C74.2388 31.9413 78.3131 27.9922 78.3741 22.674C78.4501 17.4035 74.1792 13.1951 68.8953 13.1802M73.555 25.6042C72.5435 27.5393 70.8646 28.3706 68.7642 28.3288C65.9412 28.2573 64.0121 26.4489 63.659 23.6646C63.5488 22.6055 63.5786 21.582 63.8646 20.5571C64.5186 18.3688 66.3941 16.97 68.6465 16.9178C70.7544 16.8553 72.4124 17.6448 73.4939 19.5024C73.9423 20.3143 74.1911 21.4361 74.1911 22.385C74.206 23.6631 74.0317 24.691 73.555 25.6027" fill="white"/>
<path d="M10.1425 13.1787C4.90028 13.1787 0.545918 17.4348 0.669562 22.5071C0.595078 27.8939 4.87495 31.9994 10.065 31.9994C15.2551 31.9994 19.6199 27.8611 19.6437 22.6442C19.6556 17.4362 15.4249 13.1951 10.144 13.1802M14.1885 26.5353C13.1114 27.8611 11.6605 28.3706 10.0144 28.3288C7.17503 28.2573 5.21907 26.4176 4.90177 23.614C4.79153 22.607 4.83473 21.582 5.09394 20.6331C5.74344 18.3703 7.60704 16.9715 9.92499 16.9193C12.018 16.8568 13.6522 17.6373 14.7203 19.4831C15.2879 20.4573 15.4249 21.521 15.4622 22.6695C15.4264 24.04 15.1329 25.4061 14.1885 26.5353Z" fill="white"/>
<path d="M55.5868 13.2318C54.0971 13.3494 53.0513 14.2164 52.0756 15.2548C52.0622 15.2324 52.0339 15.219 52.0339 15.1981V13.7293H47.9834V31.4819H52.0339V22.1177C52.0339 20.9871 52.1515 19.8609 52.67 18.8136C53.3165 17.5176 54.5633 16.9694 56.0396 17.2822C56.6221 17.3805 57.145 17.7172 57.7304 17.9228C58.3218 16.731 58.9445 15.5169 59.5762 14.2641C58.3203 13.5178 57.0094 13.0977 55.5868 13.2332" fill="white"/>
</svg>
