<svg width="120" height="47" viewBox="0 0 120 47" fill="none" xmlns="http://www.w3.org/2000/svg">
<g clip-path="url(#clip0_115_83109)">
<path d="M4.73608 0H0V46.3118H4.73608V0Z" fill="white"/>
<path d="M37.4294 0H32.6934V46.3118H37.4294V0Z" fill="white"/>
<path d="M11.2757 3.84766H6.53516V46.3117H11.2757V3.84766Z" fill="white"/>
<path d="M30.8904 3.84766H26.1543V46.3117H30.8904V3.84766Z" fill="white"/>
<path d="M17.8103 3.84766H13.0742V22.1938C14.4892 21.127 16.0962 20.4485 17.8103 20.261V3.84766Z" fill="white"/>
<path d="M19.6133 20.2387C21.3274 20.3771 22.9299 21.0109 24.3538 22.0331V3.84766H19.6133V20.2387Z" fill="white"/>
<path d="M96.0399 13.125H94.7677V19.1333H96.0399V13.125Z" fill="white"/>
<path d="M103.448 19.1333H104.051V13.125H99.8104V16.7675H102.779V17.8789H99.8104V19.1511H103.448V19.1333ZM101.083 15.4953V14.4061H102.774V15.4953H101.083Z" fill="white"/>
<path d="M119.404 13.125H118.73H117.034H116.4H115.762V14.4061V16.1648H117.034V14.4061H118.73V19.1333H120.002V13.125H119.435H119.404Z" fill="white"/>
<path d="M107.785 13.125V16.7719H108.419H109.057H110.749V19.1333H112.026V13.125H110.749V15.4953H109.057V13.125H107.785Z" fill="white"/>
<path d="M61.2063 13.125H59.9297V19.1734H61.2063V13.125Z" fill="white"/>
<path d="M69.2274 19.1734V13.125H67.9508V16.4728L66.2233 13.125H66.2144H64.9511V19.1734H66.2233V15.9015L67.9151 19.1824L67.9508 19.1645V19.1734H69.2274Z" fill="white"/>
<path d="M56.1708 19.1734V17.9013V15.4953H55.5281H54.8942H53.2024V14.4061H56.1708V13.125H53.2024H51.9258V14.4061V16.7719H52.5284H53.2024H54.8942V17.9013H51.9258V19.1734H54.8942H56.1708Z" fill="white"/>
<path d="M85.1664 14.4061V13.125H82.198H80.9258V14.4061V17.9013V19.1243V19.1734H85.1664V17.9013H82.198V16.7719H84.5281V15.4953H82.198V14.4061H85.1664Z" fill="white"/>
<path d="M72.9474 13.125V14.4061V17.9013V19.1556V19.1734H77.1925V17.9013H74.2241V14.4061H77.1925V13.125H74.2241H72.9474Z" fill="white"/>
<path d="M51.9258 22.6523V28.982H59.6794V30.8523H51.9258V32.6557H69.2319V30.8523H61.4827V28.982H69.2319V27.1786H53.7336V26.1162C53.7336 25.2012 54.4791 24.4557 55.3941 24.4557H69.2319V22.6523H51.9258Z" fill="white"/>
<path d="M51.9258 34.5195V36.3229H67.4285V39.952H69.2319V36.3229V34.5195H67.4285H51.9258Z" fill="white"/>
<path d="M94.5963 22.6523H92.793V31.3746H94.5963V22.6523Z" fill="white"/>
<path d="M88.1536 27.9196H89.957V26.1162V24.4512V22.6523H88.1536H77.3379V24.4512H88.1536V26.1162H77.3379V26.2591V27.9196V29.5757V31.2317V31.3746H90.2025V29.5757H79.1368V27.9196H88.1536Z" fill="white"/>
<path d="M92.7921 34.5902H79.1374V32.8984H77.334V39.9512H94.591V32.8984H92.7876V34.5902H92.7921ZM79.1374 38.1479V36.3936H92.7921V38.1479H79.1374Z" fill="white"/>
<path d="M102.697 32.6549H110.679V35.7126H112.477V32.6549H120.003V30.8516H102.697V32.6549Z" fill="white"/>
<path d="M118.2 22.6523H102.697V28.982H120.003V27.1786V24.4557V22.6523H118.2ZM104.505 27.1786V24.4557H116.539C117.45 24.4557 118.2 25.2012 118.2 26.1162V27.1786H104.505Z" fill="white"/>
<path d="M104.505 34.4844H102.697V39.9525H103.929H104.505H120.003V38.1491H104.505V34.4844Z" fill="white"/>
</g>
<defs>
<clipPath id="clip0_115_83109">
<rect width="120" height="46.3118" fill="white"/>
</clipPath>
</defs>
</svg>
