<svg width="222" height="32" viewBox="0 0 222 32" fill="none" xmlns="http://www.w3.org/2000/svg">
<g clip-path="url(#clip0_173_1018)">
<path d="M141.777 1.39062H112.613C112.549 1.39062 112.484 1.45436 112.484 1.5272V6.60775C112.484 6.68059 112.539 6.74433 112.613 6.74433H123.774V32.0469C123.774 32.1198 123.838 32.1835 123.921 32.1835H130.395C130.469 32.1835 130.533 32.1198 130.542 32.0469V6.74433H141.786C141.859 6.74433 141.914 6.68059 141.923 6.60775V1.5272C141.923 1.45436 141.859 1.39062 141.777 1.39062Z" fill="white"/>
<path d="M87.6584 31.9923L74.5529 1.49078H74.5438C74.5163 1.42705 74.4796 1.39062 74.4154 1.39062H65.8037C65.712 1.39062 65.6478 1.49078 65.712 1.58183C66.1706 2.25559 66.6658 3.84896 64.1346 9.57596L54.6609 31.9832C54.6609 31.9832 54.6517 32.0196 54.6517 32.0378C54.6517 32.1198 54.7159 32.1835 54.7893 32.1835H61.3741C61.4291 32.1835 61.475 32.1562 61.5025 32.1016L70.7836 8.50158C70.802 8.46516 70.8111 8.45606 70.8387 8.45606C70.857 8.45606 70.8662 8.45606 70.8937 8.51069L80.4683 32.1016C80.4866 32.1471 80.5416 32.1835 80.5967 32.1835H87.53C87.6034 32.1835 87.6676 32.1198 87.6676 32.0378C87.6676 32.0196 87.6676 32.0105 87.6676 31.9923H87.6584Z" fill="white"/>
<path d="M18.0316 1.39062H0.120497C0.0104446 1.39062 -0.0537528 1.53631 0.065471 1.62736C0.689103 2.19186 2.09228 3.94001 2.09228 8.27396V32.0469C2.09228 32.1198 2.15647 32.1835 2.22984 32.1835H8.44782C8.52119 32.1835 8.58539 32.1198 8.58539 32.0469V21.3851H18.3984C27.652 21.3851 29.8439 16.004 29.8439 11.4607C29.8439 6.91732 27.7254 1.39062 18.0316 1.39062ZM16.6376 15.9494H8.58539V6.91732H16.6376C21.2598 6.91732 23.0115 8.11917 23.0115 11.4425C23.0115 14.7658 21.2415 15.9585 16.6376 15.9585V15.9494Z" fill="white"/>
</g>
<defs>
<clipPath id="clip0_173_1018">
<rect width="221.217" height="32" fill="white"/>
</clipPath>
</defs>
</svg>
