<svg width="1961" height="20" viewBox="0 0 1961 20" fill="none" xmlns="http://www.w3.org/2000/svg">
<g clip-path="url(#clip0_16_2)">
<line opacity="0.2" x1="0.5" y1="1" x2="0.500001" y2="20" stroke="white"/>
<line opacity="0.2" x1="12.5" y1="8" x2="12.5" y2="20" stroke="white"/>
<line opacity="0.2" x1="24.5" y1="8" x2="24.5" y2="20" stroke="white"/>
<line opacity="0.2" x1="36.5" y1="8" x2="36.5" y2="20" stroke="white"/>
<line opacity="0.2" x1="48.5" y1="8" x2="48.5" y2="20" stroke="white"/>
<line opacity="0.2" x1="60.5" y1="8" x2="60.5" y2="20" stroke="white"/>
<line opacity="0.2" x1="72.5" y1="8" x2="72.5" y2="20" stroke="white"/>
<line opacity="0.2" x1="84.5" y1="8" x2="84.5" y2="20" stroke="white"/>
<line opacity="0.2" x1="96.5" y1="8" x2="96.5" y2="20" stroke="white"/>
</g>
<g clip-path="url(#clip1_16_2)">
<line opacity="0.2" x1="109.5" y1="1" x2="109.5" y2="20" stroke="white"/>
<line opacity="0.2" x1="121.5" y1="8" x2="121.5" y2="20" stroke="white"/>
<line opacity="0.2" x1="133.5" y1="8" x2="133.5" y2="20" stroke="white"/>
<line opacity="0.2" x1="145.5" y1="8" x2="145.5" y2="20" stroke="white"/>
<line opacity="0.2" x1="157.5" y1="8" x2="157.5" y2="20" stroke="white"/>
<line opacity="0.2" x1="169.5" y1="8" x2="169.5" y2="20" stroke="white"/>
<line opacity="0.2" x1="181.5" y1="8" x2="181.5" y2="20" stroke="white"/>
<line opacity="0.2" x1="193.5" y1="8" x2="193.5" y2="20" stroke="white"/>
<line opacity="0.2" x1="205.5" y1="8" x2="205.5" y2="20" stroke="white"/>
</g>
<g clip-path="url(#clip2_16_2)">
<line opacity="0.2" x1="218.5" y1="1" x2="218.5" y2="20" stroke="white"/>
<line opacity="0.2" x1="230.5" y1="8" x2="230.5" y2="20" stroke="white"/>
<line opacity="0.2" x1="242.5" y1="8" x2="242.5" y2="20" stroke="white"/>
<line opacity="0.2" x1="254.5" y1="8" x2="254.5" y2="20" stroke="white"/>
<line opacity="0.2" x1="266.5" y1="8" x2="266.5" y2="20" stroke="white"/>
<line opacity="0.2" x1="278.5" y1="8" x2="278.5" y2="20" stroke="white"/>
<line opacity="0.2" x1="290.5" y1="8" x2="290.5" y2="20" stroke="white"/>
<line opacity="0.2" x1="302.5" y1="8" x2="302.5" y2="20" stroke="white"/>
<line opacity="0.2" x1="314.5" y1="8" x2="314.5" y2="20" stroke="white"/>
</g>
<g clip-path="url(#clip3_16_2)">
<line opacity="0.2" x1="327.5" y1="1" x2="327.5" y2="20" stroke="white"/>
<line opacity="0.2" x1="339.5" y1="8" x2="339.5" y2="20" stroke="white"/>
<line opacity="0.2" x1="351.5" y1="8" x2="351.5" y2="20" stroke="white"/>
<line opacity="0.2" x1="363.5" y1="8" x2="363.5" y2="20" stroke="white"/>
<line opacity="0.2" x1="375.5" y1="8" x2="375.5" y2="20" stroke="white"/>
<line opacity="0.2" x1="387.5" y1="8" x2="387.5" y2="20" stroke="white"/>
<line opacity="0.2" x1="399.5" y1="8" x2="399.5" y2="20" stroke="white"/>
<line opacity="0.2" x1="411.5" y1="8" x2="411.5" y2="20" stroke="white"/>
<line opacity="0.2" x1="423.5" y1="8" x2="423.5" y2="20" stroke="white"/>
</g>
<g clip-path="url(#clip4_16_2)">
<line opacity="0.2" x1="436.5" y1="1" x2="436.5" y2="20" stroke="white"/>
<line opacity="0.2" x1="448.5" y1="8" x2="448.5" y2="20" stroke="white"/>
<line opacity="0.2" x1="460.5" y1="8" x2="460.5" y2="20" stroke="white"/>
<line opacity="0.2" x1="472.5" y1="8" x2="472.5" y2="20" stroke="white"/>
<line opacity="0.2" x1="484.5" y1="8" x2="484.5" y2="20" stroke="white"/>
<line opacity="0.2" x1="496.5" y1="8" x2="496.5" y2="20" stroke="white"/>
<line opacity="0.2" x1="508.5" y1="8" x2="508.5" y2="20" stroke="white"/>
<line opacity="0.2" x1="520.5" y1="8" x2="520.5" y2="20" stroke="white"/>
<line opacity="0.2" x1="532.5" y1="8" x2="532.5" y2="20" stroke="white"/>
</g>
<g clip-path="url(#clip5_16_2)">
<line opacity="0.2" x1="545.5" y1="1" x2="545.5" y2="20" stroke="white"/>
<line opacity="0.2" x1="557.5" y1="8" x2="557.5" y2="20" stroke="white"/>
<line opacity="0.2" x1="569.5" y1="8" x2="569.5" y2="20" stroke="white"/>
<line opacity="0.2" x1="581.5" y1="8" x2="581.5" y2="20" stroke="white"/>
<line opacity="0.2" x1="593.5" y1="8" x2="593.5" y2="20" stroke="white"/>
<line opacity="0.2" x1="605.5" y1="8" x2="605.5" y2="20" stroke="white"/>
<line opacity="0.2" x1="617.5" y1="8" x2="617.5" y2="20" stroke="white"/>
<line opacity="0.2" x1="629.5" y1="8" x2="629.5" y2="20" stroke="white"/>
<line opacity="0.2" x1="641.5" y1="8" x2="641.5" y2="20" stroke="white"/>
</g>
<g clip-path="url(#clip6_16_2)">
<line opacity="0.2" x1="654.5" y1="1" x2="654.5" y2="20" stroke="white"/>
<line opacity="0.2" x1="666.5" y1="8" x2="666.5" y2="20" stroke="white"/>
<line opacity="0.2" x1="678.5" y1="8" x2="678.5" y2="20" stroke="white"/>
<line opacity="0.2" x1="690.5" y1="8" x2="690.5" y2="20" stroke="white"/>
<line opacity="0.2" x1="702.5" y1="8" x2="702.5" y2="20" stroke="white"/>
<line opacity="0.2" x1="714.5" y1="8" x2="714.5" y2="20" stroke="white"/>
<line opacity="0.2" x1="726.5" y1="8" x2="726.5" y2="20" stroke="white"/>
<line opacity="0.2" x1="738.5" y1="8" x2="738.5" y2="20" stroke="white"/>
<line opacity="0.2" x1="750.5" y1="8" x2="750.5" y2="20" stroke="white"/>
</g>
<g clip-path="url(#clip7_16_2)">
<line opacity="0.2" x1="763.5" y1="1" x2="763.5" y2="20" stroke="white"/>
<line opacity="0.2" x1="775.5" y1="8" x2="775.5" y2="20" stroke="white"/>
<line opacity="0.2" x1="787.5" y1="8" x2="787.5" y2="20" stroke="white"/>
<line opacity="0.2" x1="799.5" y1="8" x2="799.5" y2="20" stroke="white"/>
<line opacity="0.2" x1="811.5" y1="8" x2="811.5" y2="20" stroke="white"/>
<line opacity="0.2" x1="823.5" y1="8" x2="823.5" y2="20" stroke="white"/>
<line opacity="0.2" x1="835.5" y1="8" x2="835.5" y2="20" stroke="white"/>
<line opacity="0.2" x1="847.5" y1="8" x2="847.5" y2="20" stroke="white"/>
<line opacity="0.2" x1="859.5" y1="8" x2="859.5" y2="20" stroke="white"/>
</g>
<g clip-path="url(#clip8_16_2)">
<line opacity="0.2" x1="872.5" y1="1" x2="872.5" y2="20" stroke="white"/>
<line opacity="0.2" x1="884.5" y1="8" x2="884.5" y2="20" stroke="white"/>
<line opacity="0.2" x1="896.5" y1="8" x2="896.5" y2="20" stroke="white"/>
<line opacity="0.2" x1="908.5" y1="8" x2="908.5" y2="20" stroke="white"/>
<line opacity="0.2" x1="920.5" y1="8" x2="920.5" y2="20" stroke="white"/>
<line opacity="0.2" x1="932.5" y1="8" x2="932.5" y2="20" stroke="white"/>
<line opacity="0.2" x1="944.5" y1="8" x2="944.5" y2="20" stroke="white"/>
<line opacity="0.2" x1="956.5" y1="8" x2="956.5" y2="20" stroke="white"/>
<line opacity="0.2" x1="968.5" y1="8" x2="968.5" y2="20" stroke="white"/>
</g>
<g clip-path="url(#clip9_16_2)">
<line opacity="0.2" x1="981.5" y1="1" x2="981.5" y2="20" stroke="white"/>
<line opacity="0.2" x1="993.5" y1="8" x2="993.5" y2="20" stroke="white"/>
<line opacity="0.2" x1="1005.5" y1="8" x2="1005.5" y2="20" stroke="white"/>
<line opacity="0.2" x1="1017.5" y1="8" x2="1017.5" y2="20" stroke="white"/>
<line opacity="0.2" x1="1029.5" y1="8" x2="1029.5" y2="20" stroke="white"/>
<line opacity="0.2" x1="1041.5" y1="8" x2="1041.5" y2="20" stroke="white"/>
<line opacity="0.2" x1="1053.5" y1="8" x2="1053.5" y2="20" stroke="white"/>
<line opacity="0.2" x1="1065.5" y1="8" x2="1065.5" y2="20" stroke="white"/>
<line opacity="0.2" x1="1077.5" y1="8" x2="1077.5" y2="20" stroke="white"/>
</g>
<g clip-path="url(#clip10_16_2)">
<line opacity="0.2" x1="1090.5" y1="1" x2="1090.5" y2="20" stroke="white"/>
<line opacity="0.2" x1="1102.5" y1="8" x2="1102.5" y2="20" stroke="white"/>
<line opacity="0.2" x1="1114.5" y1="8" x2="1114.5" y2="20" stroke="white"/>
<line opacity="0.2" x1="1126.5" y1="8" x2="1126.5" y2="20" stroke="white"/>
<line opacity="0.2" x1="1138.5" y1="8" x2="1138.5" y2="20" stroke="white"/>
<line opacity="0.2" x1="1150.5" y1="8" x2="1150.5" y2="20" stroke="white"/>
<line opacity="0.2" x1="1162.5" y1="8" x2="1162.5" y2="20" stroke="white"/>
<line opacity="0.2" x1="1174.5" y1="8" x2="1174.5" y2="20" stroke="white"/>
<line opacity="0.2" x1="1186.5" y1="8" x2="1186.5" y2="20" stroke="white"/>
</g>
<g clip-path="url(#clip11_16_2)">
<line opacity="0.2" x1="1199.5" y1="1" x2="1199.5" y2="20" stroke="white"/>
<line opacity="0.2" x1="1211.5" y1="8" x2="1211.5" y2="20" stroke="white"/>
<line opacity="0.2" x1="1223.5" y1="8" x2="1223.5" y2="20" stroke="white"/>
<line opacity="0.2" x1="1235.5" y1="8" x2="1235.5" y2="20" stroke="white"/>
<line opacity="0.2" x1="1247.5" y1="8" x2="1247.5" y2="20" stroke="white"/>
<line opacity="0.2" x1="1259.5" y1="8" x2="1259.5" y2="20" stroke="white"/>
<line opacity="0.2" x1="1271.5" y1="8" x2="1271.5" y2="20" stroke="white"/>
<line opacity="0.2" x1="1283.5" y1="8" x2="1283.5" y2="20" stroke="white"/>
<line opacity="0.2" x1="1295.5" y1="8" x2="1295.5" y2="20" stroke="white"/>
</g>
<g clip-path="url(#clip12_16_2)">
<line opacity="0.2" x1="1308.5" y1="1" x2="1308.5" y2="20" stroke="white"/>
<line opacity="0.2" x1="1320.5" y1="8" x2="1320.5" y2="20" stroke="white"/>
<line opacity="0.2" x1="1332.5" y1="8" x2="1332.5" y2="20" stroke="white"/>
<line opacity="0.2" x1="1344.5" y1="8" x2="1344.5" y2="20" stroke="white"/>
<line opacity="0.2" x1="1356.5" y1="8" x2="1356.5" y2="20" stroke="white"/>
<line opacity="0.2" x1="1368.5" y1="8" x2="1368.5" y2="20" stroke="white"/>
<line opacity="0.2" x1="1380.5" y1="8" x2="1380.5" y2="20" stroke="white"/>
<line opacity="0.2" x1="1392.5" y1="8" x2="1392.5" y2="20" stroke="white"/>
<line opacity="0.2" x1="1404.5" y1="8" x2="1404.5" y2="20" stroke="white"/>
</g>
<g clip-path="url(#clip13_16_2)">
<line opacity="0.2" x1="1417.5" y1="1" x2="1417.5" y2="20" stroke="white"/>
<line opacity="0.2" x1="1429.5" y1="8" x2="1429.5" y2="20" stroke="white"/>
<line opacity="0.2" x1="1441.5" y1="8" x2="1441.5" y2="20" stroke="white"/>
<line opacity="0.2" x1="1453.5" y1="8" x2="1453.5" y2="20" stroke="white"/>
<line opacity="0.2" x1="1465.5" y1="8" x2="1465.5" y2="20" stroke="white"/>
<line opacity="0.2" x1="1477.5" y1="8" x2="1477.5" y2="20" stroke="white"/>
<line opacity="0.2" x1="1489.5" y1="8" x2="1489.5" y2="20" stroke="white"/>
<line opacity="0.2" x1="1501.5" y1="8" x2="1501.5" y2="20" stroke="white"/>
<line opacity="0.2" x1="1513.5" y1="8" x2="1513.5" y2="20" stroke="white"/>
</g>
<g clip-path="url(#clip14_16_2)">
<line opacity="0.2" x1="1526.5" y1="1" x2="1526.5" y2="20" stroke="white"/>
<line opacity="0.2" x1="1538.5" y1="8" x2="1538.5" y2="20" stroke="white"/>
<line opacity="0.2" x1="1550.5" y1="8" x2="1550.5" y2="20" stroke="white"/>
<line opacity="0.2" x1="1562.5" y1="8" x2="1562.5" y2="20" stroke="white"/>
<line opacity="0.2" x1="1574.5" y1="8" x2="1574.5" y2="20" stroke="white"/>
<line opacity="0.2" x1="1586.5" y1="8" x2="1586.5" y2="20" stroke="white"/>
<line opacity="0.2" x1="1598.5" y1="8" x2="1598.5" y2="20" stroke="white"/>
<line opacity="0.2" x1="1610.5" y1="8" x2="1610.5" y2="20" stroke="white"/>
<line opacity="0.2" x1="1622.5" y1="8" x2="1622.5" y2="20" stroke="white"/>
</g>
<g clip-path="url(#clip15_16_2)">
<line opacity="0.2" x1="1635.5" y1="1" x2="1635.5" y2="20" stroke="white"/>
<line opacity="0.2" x1="1647.5" y1="8" x2="1647.5" y2="20" stroke="white"/>
<line opacity="0.2" x1="1659.5" y1="8" x2="1659.5" y2="20" stroke="white"/>
<line opacity="0.2" x1="1671.5" y1="8" x2="1671.5" y2="20" stroke="white"/>
<line opacity="0.2" x1="1683.5" y1="8" x2="1683.5" y2="20" stroke="white"/>
<line opacity="0.2" x1="1695.5" y1="8" x2="1695.5" y2="20" stroke="white"/>
<line opacity="0.2" x1="1707.5" y1="8" x2="1707.5" y2="20" stroke="white"/>
<line opacity="0.2" x1="1719.5" y1="8" x2="1719.5" y2="20" stroke="white"/>
<line opacity="0.2" x1="1731.5" y1="8" x2="1731.5" y2="20" stroke="white"/>
</g>
<g clip-path="url(#clip16_16_2)">
<line opacity="0.2" x1="1744.5" y1="1" x2="1744.5" y2="20" stroke="white"/>
<line opacity="0.2" x1="1756.5" y1="8" x2="1756.5" y2="20" stroke="white"/>
<line opacity="0.2" x1="1768.5" y1="8" x2="1768.5" y2="20" stroke="white"/>
<line opacity="0.2" x1="1780.5" y1="8" x2="1780.5" y2="20" stroke="white"/>
<line opacity="0.2" x1="1792.5" y1="8" x2="1792.5" y2="20" stroke="white"/>
<line opacity="0.2" x1="1804.5" y1="8" x2="1804.5" y2="20" stroke="white"/>
<line opacity="0.2" x1="1816.5" y1="8" x2="1816.5" y2="20" stroke="white"/>
<line opacity="0.2" x1="1828.5" y1="8" x2="1828.5" y2="20" stroke="white"/>
<line opacity="0.2" x1="1840.5" y1="8" x2="1840.5" y2="20" stroke="white"/>
</g>
<g clip-path="url(#clip17_16_2)">
<line opacity="0.2" x1="1853.5" y1="1" x2="1853.5" y2="20" stroke="white"/>
<line opacity="0.2" x1="1865.5" y1="8" x2="1865.5" y2="20" stroke="white"/>
<line opacity="0.2" x1="1877.5" y1="8" x2="1877.5" y2="20" stroke="white"/>
<line opacity="0.2" x1="1889.5" y1="8" x2="1889.5" y2="20" stroke="white"/>
<line opacity="0.2" x1="1901.5" y1="8" x2="1901.5" y2="20" stroke="white"/>
<line opacity="0.2" x1="1913.5" y1="8" x2="1913.5" y2="20" stroke="white"/>
<line opacity="0.2" x1="1925.5" y1="8" x2="1925.5" y2="20" stroke="white"/>
<line opacity="0.2" x1="1937.5" y1="8" x2="1937.5" y2="20" stroke="white"/>
<line opacity="0.2" x1="1949.5" y1="8" x2="1949.5" y2="20" stroke="white"/>
</g>
<defs>
<clipPath id="clip0_16_2">
<rect width="97" height="19" fill="white" transform="translate(0 1)"/>
</clipPath>
<clipPath id="clip1_16_2">
<rect width="97" height="19" fill="white" transform="translate(109 1)"/>
</clipPath>
<clipPath id="clip2_16_2">
<rect width="97" height="19" fill="white" transform="translate(218 1)"/>
</clipPath>
<clipPath id="clip3_16_2">
<rect width="97" height="19" fill="white" transform="translate(327 1)"/>
</clipPath>
<clipPath id="clip4_16_2">
<rect width="97" height="19" fill="white" transform="translate(436 1)"/>
</clipPath>
<clipPath id="clip5_16_2">
<rect width="97" height="19" fill="white" transform="translate(545 1)"/>
</clipPath>
<clipPath id="clip6_16_2">
<rect width="97" height="19" fill="white" transform="translate(654 1)"/>
</clipPath>
<clipPath id="clip7_16_2">
<rect width="97" height="19" fill="white" transform="translate(763 1)"/>
</clipPath>
<clipPath id="clip8_16_2">
<rect width="97" height="19" fill="white" transform="translate(872 1)"/>
</clipPath>
<clipPath id="clip9_16_2">
<rect width="97" height="19" fill="white" transform="translate(981 1)"/>
</clipPath>
<clipPath id="clip10_16_2">
<rect width="97" height="19" fill="white" transform="translate(1090 1)"/>
</clipPath>
<clipPath id="clip11_16_2">
<rect width="97" height="19" fill="white" transform="translate(1199 1)"/>
</clipPath>
<clipPath id="clip12_16_2">
<rect width="97" height="19" fill="white" transform="translate(1308 1)"/>
</clipPath>
<clipPath id="clip13_16_2">
<rect width="97" height="19" fill="white" transform="translate(1417 1)"/>
</clipPath>
<clipPath id="clip14_16_2">
<rect width="97" height="19" fill="white" transform="translate(1526 1)"/>
</clipPath>
<clipPath id="clip15_16_2">
<rect width="97" height="19" fill="white" transform="translate(1635 1)"/>
</clipPath>
<clipPath id="clip16_16_2">
<rect width="97" height="19" fill="white" transform="translate(1744 1)"/>
</clipPath>
<clipPath id="clip17_16_2">
<rect width="97" height="19" fill="white" transform="translate(1853 1)"/>
</clipPath>
</defs>
</svg>
