<svg width="255" height="23" viewBox="0 0 255 23" fill="none" xmlns="http://www.w3.org/2000/svg">
<path d="M16.9261 15.118C19.2801 15.096 19.6101 15.536 19.6101 16.042C19.6101 16.504 19.3681 16.768 18.0701 16.702C16.6401 16.614 13.5381 16.504 9.46814 16.856C7.04814 17.054 3.59414 17.802 2.73614 18.022C2.14214 18.132 1.96614 18.286 1.37214 17.912C0.866141 17.582 0.338141 17.252 0.118141 17.12L0.162141 16.966C3.70414 16.328 6.74014 15.888 9.27014 15.602C9.40214 13.16 8.80814 12.148 8.74214 12.038H7.22414C7.04814 12.566 6.45414 12.456 6.08014 12.544C5.83814 9.332 5.59614 7.044 5.50814 6.362C5.42014 5.636 4.62814 5.284 4.62814 5.284L4.71614 4.976C4.71614 4.976 7.24614 5.042 7.26814 6.274C7.29014 6.714 7.29014 7.198 7.31214 7.682C9.09414 7.418 10.7881 7.154 12.3721 6.934C12.3061 6.098 12.2401 5.416 12.1961 5.042C12.0861 4.096 11.2941 3.722 11.2941 3.722L11.4041 3.48C11.4041 3.48 14.1981 3.546 14.1101 4.668C14.0441 5.79 13.8021 8.804 13.6701 10.454C14.3081 10.564 14.3301 10.938 14.3081 11.268C14.2861 12.038 13.0321 12.016 11.9101 12.038H9.71014C10.1721 12.192 10.7221 12.368 11.0961 12.588C11.4481 12.764 11.4261 12.786 11.4041 13.094C11.3601 13.556 11.1181 14.502 10.8321 15.448C13.4501 15.206 15.4521 15.118 16.9261 15.118ZM9.27014 8.804C8.72014 8.914 7.84014 8.716 7.31214 8.342C7.31214 9.354 7.31214 10.366 7.29014 11.114C8.06014 11.026 11.1401 10.696 12.5701 10.498C12.5481 9.794 12.5261 8.98 12.4601 8.188C11.7781 8.32 10.7221 8.496 9.27014 8.804ZM35.2284 10.696C37.0984 10.718 39.0344 11.73 38.1764 12.962C37.6704 13.666 35.8224 12.72 34.5684 12.28L33.2704 11.84C33.2484 13.138 33.2264 14.458 33.1824 15.822C33.1164 18.286 32.6984 21.3 32.5444 21.938H32.2364C32.0164 21.058 31.6644 16.306 31.6204 14.436C31.6204 13.512 31.6204 12.258 31.5984 10.894C30.9164 11.356 27.6164 13.512 22.7544 15.558L21.5444 13.776C21.5444 13.776 22.0944 7.528 21.9624 6.626C21.8524 5.812 21.1264 5.196 21.1264 5.196L21.2584 4.888L21.4784 4.954C21.8744 5.042 22.6224 5.24 23.4144 5.284C24.4264 5.328 27.0224 4.932 27.2864 4.91C28.2104 4.756 28.5624 5.174 28.5404 5.592C28.4964 5.944 28.2984 6.208 27.6604 6.274C26.3844 6.472 24.8664 6.626 23.8104 6.648C23.7444 6.648 23.6784 6.67 23.6124 6.67C23.5904 7.55 23.5024 13.16 23.5024 13.16C23.5024 13.336 23.6124 13.402 23.8544 13.292C24.1404 13.226 28.4524 11.774 31.5764 10.102C31.5544 7.22 31.5104 4.096 31.5104 2.82C31.5104 1.83 30.8284 1.302 29.9704 1.016L30.0584 0.751999C30.9384 0.708 32.4344 0.993999 32.8524 1.17C33.1384 1.302 33.3584 1.456 33.3144 1.918C33.2924 2.204 33.2924 2.292 33.2924 2.534C33.2924 3.48 33.2704 4.536 33.2704 5.724V10.718C33.7764 10.718 34.4804 10.696 35.2284 10.696ZM59.3055 1.17C59.6135 1.302 59.8115 1.456 59.7675 1.918C59.7455 2.204 59.7455 2.292 59.7455 2.534C59.7235 3.678 59.7015 6.692 59.6575 9.024C59.6135 11.268 59.1735 14.128 59.0195 14.744H58.7115C58.5135 13.996 58.0955 12.5 57.9855 10.74L56.5555 11.048C55.6095 11.246 55.1035 10.762 54.6635 10.432C54.2235 10.058 54.1795 10.058 54.1795 10.058L54.2675 9.794C55.7855 9.574 56.8415 9.42 57.9635 9.244V7.352L56.5555 7.66C55.6095 7.858 55.1035 7.374 54.6635 7.022C54.5535 6.934 54.4655 6.846 54.3995 6.802C54.0915 7.418 52.9915 9.86 51.7375 11.62C52.3755 11.532 52.9915 11.444 53.6735 11.378C55.5875 11.202 55.7855 11.686 55.7195 12.17C55.6755 12.61 55.0155 12.698 53.7395 12.852C52.1995 13.028 51.6935 13.094 50.3295 13.358C49.8235 13.446 49.2515 13.534 48.6795 13.688C48.1075 13.82 47.6675 13.798 47.0735 13.424C46.5455 13.094 46.2595 12.94 46.0175 12.764L46.1275 12.61C48.0415 12.258 49.4055 11.994 50.5715 11.796C50.8795 11.334 51.2755 10.63 51.6495 9.772C52.3975 7.946 52.7715 6.252 52.0455 5.328C51.2975 5.438 50.5495 5.57 49.9555 5.68C48.2615 6.032 48.0195 6.032 46.9415 5.548C46.2375 5.24 45.9735 5.02 45.6875 4.844L45.7535 4.69C48.7455 4.734 53.0575 3.766 53.0575 3.766C53.0575 3.766 53.9375 3.942 55.0595 4.228C55.3235 4.294 55.4115 4.316 55.5435 4.382C55.9835 4.514 55.9615 4.514 55.9175 4.756C55.9175 4.756 54.5095 4.954 52.9475 5.196C53.3655 5.35 53.8495 5.548 54.1795 5.68C54.6855 5.922 54.7075 6.076 54.5975 6.362C55.9395 6.142 56.9075 6.01 57.9635 5.856V2.82C57.9635 1.83 57.3035 1.302 56.4455 1.016L56.5115 0.751999C57.3915 0.708 58.8875 0.993999 59.3055 1.17ZM50.3075 7.924C50.4615 9.178 50.2195 10.08 49.8675 11.026L49.6475 11.136C48.5695 8.408 47.3375 6.824 47.3375 6.824L47.4035 6.582C47.4035 6.582 50.1755 6.692 50.3075 7.924ZM55.6315 15.426C56.4015 15.536 58.6895 16.218 58.7555 18.44C58.8435 21.102 55.5435 22.554 53.4535 21.19C51.3635 19.848 51.6495 17.912 52.1555 16.878C52.5955 15.976 53.7615 15.316 54.0915 14.722C54.2455 14.392 54.3775 14.018 54.1575 13.908L54.2675 13.798C55.0375 13.93 55.6755 14.304 56.0715 14.744C56.2255 14.898 56.2255 15.118 56.0275 15.228C55.9615 15.272 55.7855 15.316 55.6315 15.426ZM56.5335 19.782C57.4355 19.078 57.8755 16.68 54.9495 15.976C54.9495 15.976 54.3995 16.174 53.7615 16.9C53.3875 17.318 52.9475 18.352 53.4975 19.276C54.0695 20.266 55.6755 20.442 56.5335 19.782ZM76.5704 9.53C78.4404 9.552 80.3984 10.564 79.5404 11.796C79.0344 12.478 77.1864 11.532 75.9324 11.092C75.6244 11.004 75.2504 10.872 74.9204 10.762C74.8324 12.94 74.4364 15.602 74.2604 16.174H73.9744C73.7324 15.294 73.2264 13.424 73.2264 11.312C73.2044 9.574 73.2264 4.844 73.2264 2.82C73.2264 1.83 72.5664 1.302 71.7084 1.016L71.7744 0.751999C72.6544 0.708 74.1504 0.993999 74.5684 1.17C74.8764 1.302 75.0744 1.456 75.0304 1.918C75.0084 2.204 75.0084 2.292 75.0084 2.534C75.0084 4.668 74.9644 7.33 74.9424 9.552C75.4044 9.53 75.9764 9.53 76.5704 9.53ZM71.0044 9.376C71.1144 12.478 67.2644 14.128 64.8224 12.566C62.4464 11.026 62.7984 8.804 63.3704 7.616C63.8544 6.538 65.2184 5.812 65.5704 5.13C65.7904 4.756 65.9224 4.294 65.6804 4.184L65.8124 4.052C66.4504 4.184 67.5284 4.646 67.9024 5.13C68.2544 5.57 67.6604 5.768 67.3744 5.922C68.2104 6.076 70.9384 6.846 71.0044 9.376ZM64.7124 10.388C65.3504 11.62 67.3744 11.862 68.4304 11.026C69.4644 10.19 70.0584 7.352 66.5604 6.384C66.5604 6.384 65.8784 6.626 65.1964 7.352C64.7344 7.836 64.0744 9.156 64.7124 10.388ZM73.6004 19.782C74.8324 19.672 75.3164 19.98 75.2284 20.596C75.1624 21.102 75.0084 21.322 73.3364 21.322C72.1704 21.322 70.2564 21.344 69.2664 21.278C68.1004 21.19 67.6384 20.684 67.5944 19.386L67.4844 18.198C67.3524 15.624 66.1864 15.36 66.1864 15.36L66.2304 15.074C66.2304 15.074 67.5504 15.14 68.2324 15.272C68.8484 15.514 68.9364 15.536 68.9584 16.196L69.0244 19.672C69.0244 19.98 69.2224 20.09 69.4864 20.068C69.8604 20.024 72.7204 19.87 73.6004 19.782ZM95.4589 9.53C97.3289 9.552 99.2649 10.564 98.4069 11.796C97.9009 12.478 96.0529 11.532 94.7989 11.092C94.4909 11.004 94.1389 10.872 93.7869 10.762C93.7209 13.006 93.3029 15.8 93.1489 16.416H92.8409C92.6209 15.536 92.0929 13.666 92.0929 11.532C92.0709 9.794 92.0929 4.844 92.0929 2.82C92.0929 1.83 91.4329 1.302 90.5749 1.016L90.6409 0.751999C91.5209 0.708 93.0169 0.993999 93.4349 1.17C93.7429 1.302 93.9409 1.456 93.8969 1.918C93.8749 2.204 93.8749 2.292 93.8749 2.534C93.8749 4.602 93.8529 7.33 93.8089 9.552C94.2709 9.53 94.8429 9.53 95.4589 9.53ZM89.6729 10.344C89.7389 13.116 86.2849 14.612 84.0849 13.226C81.9289 11.818 82.2589 9.816 82.7649 8.738C83.2049 7.814 84.3929 7.132 84.7449 6.538C84.4149 6.604 84.0849 6.692 83.7769 6.78C82.8089 7 81.8189 6.868 80.8289 6.45C80.1029 6.164 79.6409 5.922 79.6409 5.922L79.7729 5.658C81.4889 5.658 83.3809 5.35 84.9209 5.042C84.6349 3.48 84.0849 2.952 83.3369 2.578L83.4029 2.336C83.4029 2.336 84.7229 2.314 85.6249 2.732C85.8229 2.842 86.1749 3.018 86.2189 3.7C86.2629 4.096 86.1969 4.47 86.1089 4.778C87.2969 4.514 88.0889 4.272 88.0889 4.272C88.0889 4.272 90.0249 4.69 90.5969 4.844C91.1249 4.976 91.0149 5.24 90.6189 5.328C90.2009 5.394 88.3969 5.702 86.4169 6.142C86.5929 6.252 86.7469 6.384 86.8569 6.494C86.9889 6.692 87.0989 6.824 86.7909 6.978L86.3949 7.22C87.1429 7.374 89.6069 8.034 89.6729 10.344ZM83.9969 11.158C84.5909 12.28 86.3949 12.566 87.3409 11.818C88.2649 11.07 88.7489 8.54 85.7789 7.66C85.7789 7.66 85.0089 7.946 84.4149 8.606C83.9749 9.068 83.4469 10.058 83.9969 11.158ZM92.3129 19.782C93.5449 19.672 94.0289 19.98 93.9409 20.596C93.8749 21.102 93.7209 21.322 92.0489 21.322C90.8829 21.322 88.9689 21.344 87.9569 21.278C86.8129 21.19 86.3509 20.684 86.3069 19.386L86.1969 18.198C86.0649 15.624 84.8989 15.36 84.8989 15.36L84.9429 15.074C84.9429 15.074 86.2629 15.14 86.9449 15.272C87.5609 15.514 87.6489 15.536 87.6709 16.196L87.7369 19.672C87.7369 19.98 87.9349 20.09 88.1989 20.068C88.5729 20.024 91.4329 19.87 92.3129 19.782ZM122.264 11.202C124.618 11.18 124.948 11.62 124.948 12.126C124.948 12.588 124.706 12.874 123.408 12.808C121.978 12.72 118.876 12.588 114.806 12.94C112.386 13.16 108.932 13.886 108.074 14.128C107.48 14.238 107.304 14.37 106.71 13.996L105.456 13.226L105.5 13.05C109.262 12.368 112.452 11.928 115.092 11.642C115.158 10.74 115.092 10.036 115.026 9.552C114.608 9.464 114.212 9.31 113.86 9.09C111.616 7.638 111.968 5.548 112.496 4.426C112.936 3.414 114.234 2.732 114.564 2.094C114.762 1.742 114.894 1.324 114.674 1.214L114.784 1.06C115.378 1.214 116.346 1.654 116.742 2.094C116.896 2.27 117.006 2.402 116.676 2.6C116.676 2.6 116.478 2.732 116.258 2.82C117.05 2.996 119.624 3.7 119.69 6.098C119.734 7.814 118.502 9.046 117.006 9.486C117.204 9.64 117.182 9.706 117.138 9.97C117.094 10.322 116.83 10.872 116.544 11.488C118.986 11.268 120.878 11.202 122.264 11.202ZM113.75 7.022C114.366 8.188 116.258 8.408 117.248 7.638C118.238 6.846 118.788 4.162 115.488 3.26C115.488 3.26 114.85 3.502 114.212 4.162C113.772 4.646 113.178 5.878 113.75 7.022ZM118.942 18.66C120.526 19.21 122.066 20.838 120.944 21.63C120.196 22.158 118.678 20.618 117.622 19.826C116.94 19.342 116.082 18.77 115.598 18.572L114.916 18.286C112.76 20.156 110.142 21.322 109.24 21.564L109.042 21.322C109.042 21.322 112.21 19.342 113.772 17.384C114.652 16.24 115.862 15.074 114.872 13.666L115.136 13.446C115.136 13.446 116.258 14.106 116.83 14.568C117.402 15.03 117.468 15.14 117.16 15.69C116.698 16.46 116.104 17.164 115.444 17.802C115.554 17.846 115.708 17.868 115.862 17.912C116.17 17.978 117.644 18.242 118.942 18.66ZM134.098 9.134C131.854 7.682 132.206 5.592 132.734 4.47C133.174 3.48 134.472 2.776 134.802 2.138C135 1.786 135.132 1.368 134.912 1.258L135.022 1.104C135.616 1.258 136.584 1.698 136.98 2.138C137.134 2.314 137.244 2.446 136.914 2.644C136.914 2.644 136.716 2.776 136.496 2.864C137.288 3.04 139.862 3.744 139.928 6.142C140.016 9.046 136.386 10.586 134.098 9.134ZM134.45 4.206C134.01 4.69 133.416 5.922 133.988 7.066C134.604 8.232 136.496 8.452 137.486 7.682C138.476 6.89 139.026 4.206 135.726 3.304C135.726 3.304 135.088 3.546 134.45 4.206ZM142.502 10.322C144.856 10.3 145.186 10.74 145.186 11.246C145.186 11.708 144.944 11.994 143.646 11.928C142.216 11.84 139.114 11.708 135.044 12.06C132.624 12.28 129.17 13.006 128.312 13.248C127.718 13.358 127.542 13.49 126.948 13.116L125.694 12.346L125.738 12.17C133.988 10.674 139.444 10.322 142.502 10.322ZM138.498 20.398C140.566 20.178 140.83 20.574 140.83 21.124C140.83 21.674 140.72 21.982 138.696 21.938C137.442 21.916 135.44 21.894 134.538 21.828C133.306 21.762 133.064 21.476 132.8 20.09C132.69 19.474 132.646 19.012 132.536 18.308C132.294 16.988 132.03 16.944 131.788 16.746L131.876 16.416C131.876 16.416 132.69 16.46 133.438 16.548C133.878 16.658 133.966 16.834 134.01 17.208L137.992 16.746C138.102 15.778 138.08 15.536 138.102 14.524L137.772 14.59L134.274 15.228C133.548 15.316 132.8 15.426 132.426 15.03C132.25 14.81 131.854 14.436 131.744 14.238L131.854 14.084C133.57 14.04 136.54 13.622 136.54 13.622C136.54 13.622 137.882 13.468 138.234 13.292C138.234 13.292 139.136 13.446 139.752 13.578C140.434 13.732 140.324 13.908 140.258 14.216C140.214 14.414 139.444 15.822 139.004 16.614C139.95 16.57 140.06 16.966 140.016 17.362C139.95 18.176 138.85 18.088 138.124 18.088L134.076 18.22L134.186 20.09C134.186 20.486 134.604 20.574 134.89 20.552C135.176 20.53 137.772 20.464 138.498 20.398ZM167.598 9.332C169.468 9.354 171.426 10.366 170.568 11.598C170.062 12.302 168.214 11.356 166.96 10.916C166.652 10.806 166.278 10.696 165.948 10.586C165.882 12.808 165.464 15.624 165.288 16.218H165.002C164.76 15.338 164.254 13.468 164.254 11.356C164.232 9.618 164.254 4.888 164.254 2.864C164.254 1.874 163.594 1.346 162.736 1.06L162.802 0.795999C163.682 0.751999 165.178 1.038 165.596 1.214C165.904 1.346 166.102 1.5 166.058 1.962C166.036 2.248 166.036 2.336 166.036 2.578C166.036 4.646 166.014 7.176 165.97 9.354C166.432 9.332 167.004 9.332 167.598 9.332ZM158.49 12.808C157.72 12.83 156.466 12.808 155.762 12.808C155.74 13.05 155.696 13.116 155.41 13.16L154.816 13.204C154.288 9.706 154.134 7.594 153.98 6.912C153.65 5.746 153.1 5.416 153.1 5.416L153.188 5.108C153.188 5.108 154.574 5.02 155.322 5.746L158.864 5.284C158.864 5.284 159.832 5.24 160.294 4.756C160.294 4.756 161.02 4.954 161.658 5.108C162.296 5.262 162.252 5.614 162.208 5.922C162.12 6.142 161.482 9.42 161.13 11.224C161.9 11.444 161.922 12.236 161.68 12.522C161.306 12.984 159.612 12.786 158.49 12.808ZM160.096 6.428L159.634 6.494C159.634 6.494 157.148 7 156.312 7.154C156.136 7.198 155.982 7.242 155.806 7.264C155.872 8.848 155.85 10.586 155.784 11.686C156.796 11.598 158.842 11.4 160.052 11.246C160.096 9.618 160.052 7.396 160.096 6.428ZM164.628 19.826C165.838 19.716 166.344 20.024 166.256 20.64C166.19 21.146 166.036 21.366 164.364 21.366C163.198 21.366 161.284 21.388 160.272 21.322C159.128 21.234 158.666 20.728 158.622 19.43L158.512 18.242C158.38 15.668 157.214 15.404 157.214 15.404L157.258 15.118C157.258 15.118 158.578 15.184 159.26 15.316C159.876 15.558 159.964 15.58 159.986 16.24L160.052 19.716C160.052 20.024 160.25 20.134 160.514 20.112C160.888 20.068 163.748 19.914 164.628 19.826ZM176.874 7.132C176.852 5.658 175.532 5.196 175.532 5.196L175.62 4.91C175.62 4.91 176.874 4.932 177.534 5.108C177.82 5.196 178.04 5.284 178.216 5.416C178.304 5.416 178.392 5.438 178.48 5.438C179.492 5.482 184.464 4.888 184.684 4.8C185.608 4.69 185.982 5.086 185.916 5.526C185.894 5.856 185.674 6.142 185.102 6.208C183.76 6.384 179.954 6.758 178.898 6.846H178.568C178.568 8.078 178.502 10.278 178.524 10.564C178.546 10.916 178.788 10.916 179.052 10.916C179.316 10.916 181.78 10.674 183.364 10.432C185.014 10.168 185.652 10.146 185.806 10.916C185.96 11.818 185.388 11.928 183.166 12.038C181.252 12.126 179.36 12.28 178.678 12.302C177.402 12.324 177.006 11.84 176.962 10.586L176.874 7.132ZM188.028 15.096C190.382 15.074 190.712 15.514 190.712 16.02C190.712 16.482 190.47 16.746 189.172 16.68C187.742 16.592 184.64 16.482 180.57 16.812C178.15 17.032 174.696 17.78 173.838 18C173.244 18.11 173.068 18.264 172.474 17.89C171.968 17.56 171.44 17.23 171.22 17.098L171.264 16.944C179.514 15.426 184.97 15.096 188.028 15.096ZM197.86 7.748L197.728 5.196C197.706 3.722 196.32 3.26 196.32 3.26L196.43 2.974C196.43 2.974 197.662 2.996 198.322 3.172C198.916 3.348 199.29 3.568 199.334 4.162C199.4 4.822 199.29 7.352 199.312 7.726C199.334 8.078 199.576 8.144 199.84 8.122C200.126 8.122 202.942 7.726 204.504 7.33C206.088 6.934 206.88 7.286 206.924 7.902C207.012 8.54 206.792 8.782 204.878 9.002C202.964 9.178 200.148 9.486 199.466 9.464C198.322 9.442 197.904 9.002 197.86 7.748ZM191.458 12.984L191.502 12.83C199.752 11.334 205.208 10.982 208.266 10.982C210.62 10.96 210.95 11.4 210.95 11.906C210.95 12.368 210.708 12.632 209.41 12.566C207.98 12.478 204.878 12.368 200.808 12.72C198.388 12.918 194.934 13.666 194.076 13.886C193.482 13.996 193.306 14.15 192.712 13.776L191.458 12.984ZM198.432 19.496L198.146 16.372C198.036 15.25 197.156 15.096 197.156 15.096L197.178 14.788C197.178 14.788 198.41 14.788 199.048 15.008C199.664 15.184 199.752 15.25 199.752 15.91C199.752 16.526 199.862 19.65 199.862 19.65C199.862 19.98 200.148 20.09 200.412 20.068L204.878 19.804C206.792 19.628 207.21 19.826 207.21 20.42C207.21 21.102 207.034 21.344 204.614 21.322C203.448 21.322 200.786 21.278 200.104 21.256C198.916 21.234 198.564 20.75 198.432 19.496ZM220.338 18.176H220.008C220.14 15.206 220.338 8.672 220.184 5.57C220.052 3.304 218.82 3.106 218.82 3.106L218.952 2.82C218.952 2.82 220.448 2.82 221.108 3.018C221.592 3.172 221.834 3.282 221.9 3.766C222.868 3.238 224.21 2.842 225.53 2.996C227.224 3.194 229.402 4.756 228.962 7.66C228.478 10.828 224.738 11.488 222.978 11.422L222.56 10.63C226.74 10.498 227.224 8.276 227.246 7.088C227.29 5.064 225.75 3.898 224.32 3.942C223.242 3.986 222.45 4.294 221.9 4.822L221.702 17.912C221.218 18 220.8 18.11 220.338 18.176ZM231.056 18.132C230.704 18.22 230.198 18.154 229.824 18.066C231.936 13.578 233.85 7.352 235.874 3.084C236.072 2.688 236.468 2.622 236.842 2.644L237.612 2.688C237.766 3.81 238.316 5.68 239.306 10.212C239.614 11.664 240.274 14.81 241.132 16.13C241.594 16.834 242.276 16.922 243.574 17.098L243.508 17.802L241 18.066C240.648 18.11 240.428 18.044 240.208 17.802C239.768 17.318 239.064 16.218 238.536 14.15L238.03 12.148C235.786 12.126 234.928 12.104 233.696 12.148C233.3 13.204 232.794 14.81 232.31 16.086C231.892 17.208 231.584 17.956 231.056 18.132ZM234.092 10.982L237.788 10.938L236.424 4.778C235.764 6.582 234.994 8.606 234.092 10.982ZM248.607 4.47L246.033 4.58C245.835 4.58 245.527 4.602 245.439 4.58C245.263 4.536 245.065 4.426 244.867 4.294L243.701 3.48L243.855 3.084L245.967 3.238C248.189 3.238 251.291 3.194 253.161 2.996L254.965 3.854L254.811 4.316L250.367 4.404L250.235 17.89C249.751 17.978 249.289 18.088 248.827 18.154H248.431C248.563 15.316 248.607 7.924 248.607 4.47Z" fill="url(#paint0_linear_70_47)"/>
<path d="M16.9261 15.118C19.2801 15.096 19.6101 15.536 19.6101 16.042C19.6101 16.504 19.3681 16.768 18.0701 16.702C16.6401 16.614 13.5381 16.504 9.46814 16.856C7.04814 17.054 3.59414 17.802 2.73614 18.022C2.14214 18.132 1.96614 18.286 1.37214 17.912C0.866141 17.582 0.338141 17.252 0.118141 17.12L0.162141 16.966C3.70414 16.328 6.74014 15.888 9.27014 15.602C9.40214 13.16 8.80814 12.148 8.74214 12.038H7.22414C7.04814 12.566 6.45414 12.456 6.08014 12.544C5.83814 9.332 5.59614 7.044 5.50814 6.362C5.42014 5.636 4.62814 5.284 4.62814 5.284L4.71614 4.976C4.71614 4.976 7.24614 5.042 7.26814 6.274C7.29014 6.714 7.29014 7.198 7.31214 7.682C9.09414 7.418 10.7881 7.154 12.3721 6.934C12.3061 6.098 12.2401 5.416 12.1961 5.042C12.0861 4.096 11.2941 3.722 11.2941 3.722L11.4041 3.48C11.4041 3.48 14.1981 3.546 14.1101 4.668C14.0441 5.79 13.8021 8.804 13.6701 10.454C14.3081 10.564 14.3301 10.938 14.3081 11.268C14.2861 12.038 13.0321 12.016 11.9101 12.038H9.71014C10.1721 12.192 10.7221 12.368 11.0961 12.588C11.4481 12.764 11.4261 12.786 11.4041 13.094C11.3601 13.556 11.1181 14.502 10.8321 15.448C13.4501 15.206 15.4521 15.118 16.9261 15.118ZM9.27014 8.804C8.72014 8.914 7.84014 8.716 7.31214 8.342C7.31214 9.354 7.31214 10.366 7.29014 11.114C8.06014 11.026 11.1401 10.696 12.5701 10.498C12.5481 9.794 12.5261 8.98 12.4601 8.188C11.7781 8.32 10.7221 8.496 9.27014 8.804ZM35.2284 10.696C37.0984 10.718 39.0344 11.73 38.1764 12.962C37.6704 13.666 35.8224 12.72 34.5684 12.28L33.2704 11.84C33.2484 13.138 33.2264 14.458 33.1824 15.822C33.1164 18.286 32.6984 21.3 32.5444 21.938H32.2364C32.0164 21.058 31.6644 16.306 31.6204 14.436C31.6204 13.512 31.6204 12.258 31.5984 10.894C30.9164 11.356 27.6164 13.512 22.7544 15.558L21.5444 13.776C21.5444 13.776 22.0944 7.528 21.9624 6.626C21.8524 5.812 21.1264 5.196 21.1264 5.196L21.2584 4.888L21.4784 4.954C21.8744 5.042 22.6224 5.24 23.4144 5.284C24.4264 5.328 27.0224 4.932 27.2864 4.91C28.2104 4.756 28.5624 5.174 28.5404 5.592C28.4964 5.944 28.2984 6.208 27.6604 6.274C26.3844 6.472 24.8664 6.626 23.8104 6.648C23.7444 6.648 23.6784 6.67 23.6124 6.67C23.5904 7.55 23.5024 13.16 23.5024 13.16C23.5024 13.336 23.6124 13.402 23.8544 13.292C24.1404 13.226 28.4524 11.774 31.5764 10.102C31.5544 7.22 31.5104 4.096 31.5104 2.82C31.5104 1.83 30.8284 1.302 29.9704 1.016L30.0584 0.751999C30.9384 0.708 32.4344 0.993999 32.8524 1.17C33.1384 1.302 33.3584 1.456 33.3144 1.918C33.2924 2.204 33.2924 2.292 33.2924 2.534C33.2924 3.48 33.2704 4.536 33.2704 5.724V10.718C33.7764 10.718 34.4804 10.696 35.2284 10.696ZM59.3055 1.17C59.6135 1.302 59.8115 1.456 59.7675 1.918C59.7455 2.204 59.7455 2.292 59.7455 2.534C59.7235 3.678 59.7015 6.692 59.6575 9.024C59.6135 11.268 59.1735 14.128 59.0195 14.744H58.7115C58.5135 13.996 58.0955 12.5 57.9855 10.74L56.5555 11.048C55.6095 11.246 55.1035 10.762 54.6635 10.432C54.2235 10.058 54.1795 10.058 54.1795 10.058L54.2675 9.794C55.7855 9.574 56.8415 9.42 57.9635 9.244V7.352L56.5555 7.66C55.6095 7.858 55.1035 7.374 54.6635 7.022C54.5535 6.934 54.4655 6.846 54.3995 6.802C54.0915 7.418 52.9915 9.86 51.7375 11.62C52.3755 11.532 52.9915 11.444 53.6735 11.378C55.5875 11.202 55.7855 11.686 55.7195 12.17C55.6755 12.61 55.0155 12.698 53.7395 12.852C52.1995 13.028 51.6935 13.094 50.3295 13.358C49.8235 13.446 49.2515 13.534 48.6795 13.688C48.1075 13.82 47.6675 13.798 47.0735 13.424C46.5455 13.094 46.2595 12.94 46.0175 12.764L46.1275 12.61C48.0415 12.258 49.4055 11.994 50.5715 11.796C50.8795 11.334 51.2755 10.63 51.6495 9.772C52.3975 7.946 52.7715 6.252 52.0455 5.328C51.2975 5.438 50.5495 5.57 49.9555 5.68C48.2615 6.032 48.0195 6.032 46.9415 5.548C46.2375 5.24 45.9735 5.02 45.6875 4.844L45.7535 4.69C48.7455 4.734 53.0575 3.766 53.0575 3.766C53.0575 3.766 53.9375 3.942 55.0595 4.228C55.3235 4.294 55.4115 4.316 55.5435 4.382C55.9835 4.514 55.9615 4.514 55.9175 4.756C55.9175 4.756 54.5095 4.954 52.9475 5.196C53.3655 5.35 53.8495 5.548 54.1795 5.68C54.6855 5.922 54.7075 6.076 54.5975 6.362C55.9395 6.142 56.9075 6.01 57.9635 5.856V2.82C57.9635 1.83 57.3035 1.302 56.4455 1.016L56.5115 0.751999C57.3915 0.708 58.8875 0.993999 59.3055 1.17ZM50.3075 7.924C50.4615 9.178 50.2195 10.08 49.8675 11.026L49.6475 11.136C48.5695 8.408 47.3375 6.824 47.3375 6.824L47.4035 6.582C47.4035 6.582 50.1755 6.692 50.3075 7.924ZM55.6315 15.426C56.4015 15.536 58.6895 16.218 58.7555 18.44C58.8435 21.102 55.5435 22.554 53.4535 21.19C51.3635 19.848 51.6495 17.912 52.1555 16.878C52.5955 15.976 53.7615 15.316 54.0915 14.722C54.2455 14.392 54.3775 14.018 54.1575 13.908L54.2675 13.798C55.0375 13.93 55.6755 14.304 56.0715 14.744C56.2255 14.898 56.2255 15.118 56.0275 15.228C55.9615 15.272 55.7855 15.316 55.6315 15.426ZM56.5335 19.782C57.4355 19.078 57.8755 16.68 54.9495 15.976C54.9495 15.976 54.3995 16.174 53.7615 16.9C53.3875 17.318 52.9475 18.352 53.4975 19.276C54.0695 20.266 55.6755 20.442 56.5335 19.782ZM76.5704 9.53C78.4404 9.552 80.3984 10.564 79.5404 11.796C79.0344 12.478 77.1864 11.532 75.9324 11.092C75.6244 11.004 75.2504 10.872 74.9204 10.762C74.8324 12.94 74.4364 15.602 74.2604 16.174H73.9744C73.7324 15.294 73.2264 13.424 73.2264 11.312C73.2044 9.574 73.2264 4.844 73.2264 2.82C73.2264 1.83 72.5664 1.302 71.7084 1.016L71.7744 0.751999C72.6544 0.708 74.1504 0.993999 74.5684 1.17C74.8764 1.302 75.0744 1.456 75.0304 1.918C75.0084 2.204 75.0084 2.292 75.0084 2.534C75.0084 4.668 74.9644 7.33 74.9424 9.552C75.4044 9.53 75.9764 9.53 76.5704 9.53ZM71.0044 9.376C71.1144 12.478 67.2644 14.128 64.8224 12.566C62.4464 11.026 62.7984 8.804 63.3704 7.616C63.8544 6.538 65.2184 5.812 65.5704 5.13C65.7904 4.756 65.9224 4.294 65.6804 4.184L65.8124 4.052C66.4504 4.184 67.5284 4.646 67.9024 5.13C68.2544 5.57 67.6604 5.768 67.3744 5.922C68.2104 6.076 70.9384 6.846 71.0044 9.376ZM64.7124 10.388C65.3504 11.62 67.3744 11.862 68.4304 11.026C69.4644 10.19 70.0584 7.352 66.5604 6.384C66.5604 6.384 65.8784 6.626 65.1964 7.352C64.7344 7.836 64.0744 9.156 64.7124 10.388ZM73.6004 19.782C74.8324 19.672 75.3164 19.98 75.2284 20.596C75.1624 21.102 75.0084 21.322 73.3364 21.322C72.1704 21.322 70.2564 21.344 69.2664 21.278C68.1004 21.19 67.6384 20.684 67.5944 19.386L67.4844 18.198C67.3524 15.624 66.1864 15.36 66.1864 15.36L66.2304 15.074C66.2304 15.074 67.5504 15.14 68.2324 15.272C68.8484 15.514 68.9364 15.536 68.9584 16.196L69.0244 19.672C69.0244 19.98 69.2224 20.09 69.4864 20.068C69.8604 20.024 72.7204 19.87 73.6004 19.782ZM95.4589 9.53C97.3289 9.552 99.2649 10.564 98.4069 11.796C97.9009 12.478 96.0529 11.532 94.7989 11.092C94.4909 11.004 94.1389 10.872 93.7869 10.762C93.7209 13.006 93.3029 15.8 93.1489 16.416H92.8409C92.6209 15.536 92.0929 13.666 92.0929 11.532C92.0709 9.794 92.0929 4.844 92.0929 2.82C92.0929 1.83 91.4329 1.302 90.5749 1.016L90.6409 0.751999C91.5209 0.708 93.0169 0.993999 93.4349 1.17C93.7429 1.302 93.9409 1.456 93.8969 1.918C93.8749 2.204 93.8749 2.292 93.8749 2.534C93.8749 4.602 93.8529 7.33 93.8089 9.552C94.2709 9.53 94.8429 9.53 95.4589 9.53ZM89.6729 10.344C89.7389 13.116 86.2849 14.612 84.0849 13.226C81.9289 11.818 82.2589 9.816 82.7649 8.738C83.2049 7.814 84.3929 7.132 84.7449 6.538C84.4149 6.604 84.0849 6.692 83.7769 6.78C82.8089 7 81.8189 6.868 80.8289 6.45C80.1029 6.164 79.6409 5.922 79.6409 5.922L79.7729 5.658C81.4889 5.658 83.3809 5.35 84.9209 5.042C84.6349 3.48 84.0849 2.952 83.3369 2.578L83.4029 2.336C83.4029 2.336 84.7229 2.314 85.6249 2.732C85.8229 2.842 86.1749 3.018 86.2189 3.7C86.2629 4.096 86.1969 4.47 86.1089 4.778C87.2969 4.514 88.0889 4.272 88.0889 4.272C88.0889 4.272 90.0249 4.69 90.5969 4.844C91.1249 4.976 91.0149 5.24 90.6189 5.328C90.2009 5.394 88.3969 5.702 86.4169 6.142C86.5929 6.252 86.7469 6.384 86.8569 6.494C86.9889 6.692 87.0989 6.824 86.7909 6.978L86.3949 7.22C87.1429 7.374 89.6069 8.034 89.6729 10.344ZM83.9969 11.158C84.5909 12.28 86.3949 12.566 87.3409 11.818C88.2649 11.07 88.7489 8.54 85.7789 7.66C85.7789 7.66 85.0089 7.946 84.4149 8.606C83.9749 9.068 83.4469 10.058 83.9969 11.158ZM92.3129 19.782C93.5449 19.672 94.0289 19.98 93.9409 20.596C93.8749 21.102 93.7209 21.322 92.0489 21.322C90.8829 21.322 88.9689 21.344 87.9569 21.278C86.8129 21.19 86.3509 20.684 86.3069 19.386L86.1969 18.198C86.0649 15.624 84.8989 15.36 84.8989 15.36L84.9429 15.074C84.9429 15.074 86.2629 15.14 86.9449 15.272C87.5609 15.514 87.6489 15.536 87.6709 16.196L87.7369 19.672C87.7369 19.98 87.9349 20.09 88.1989 20.068C88.5729 20.024 91.4329 19.87 92.3129 19.782ZM122.264 11.202C124.618 11.18 124.948 11.62 124.948 12.126C124.948 12.588 124.706 12.874 123.408 12.808C121.978 12.72 118.876 12.588 114.806 12.94C112.386 13.16 108.932 13.886 108.074 14.128C107.48 14.238 107.304 14.37 106.71 13.996L105.456 13.226L105.5 13.05C109.262 12.368 112.452 11.928 115.092 11.642C115.158 10.74 115.092 10.036 115.026 9.552C114.608 9.464 114.212 9.31 113.86 9.09C111.616 7.638 111.968 5.548 112.496 4.426C112.936 3.414 114.234 2.732 114.564 2.094C114.762 1.742 114.894 1.324 114.674 1.214L114.784 1.06C115.378 1.214 116.346 1.654 116.742 2.094C116.896 2.27 117.006 2.402 116.676 2.6C116.676 2.6 116.478 2.732 116.258 2.82C117.05 2.996 119.624 3.7 119.69 6.098C119.734 7.814 118.502 9.046 117.006 9.486C117.204 9.64 117.182 9.706 117.138 9.97C117.094 10.322 116.83 10.872 116.544 11.488C118.986 11.268 120.878 11.202 122.264 11.202ZM113.75 7.022C114.366 8.188 116.258 8.408 117.248 7.638C118.238 6.846 118.788 4.162 115.488 3.26C115.488 3.26 114.85 3.502 114.212 4.162C113.772 4.646 113.178 5.878 113.75 7.022ZM118.942 18.66C120.526 19.21 122.066 20.838 120.944 21.63C120.196 22.158 118.678 20.618 117.622 19.826C116.94 19.342 116.082 18.77 115.598 18.572L114.916 18.286C112.76 20.156 110.142 21.322 109.24 21.564L109.042 21.322C109.042 21.322 112.21 19.342 113.772 17.384C114.652 16.24 115.862 15.074 114.872 13.666L115.136 13.446C115.136 13.446 116.258 14.106 116.83 14.568C117.402 15.03 117.468 15.14 117.16 15.69C116.698 16.46 116.104 17.164 115.444 17.802C115.554 17.846 115.708 17.868 115.862 17.912C116.17 17.978 117.644 18.242 118.942 18.66ZM134.098 9.134C131.854 7.682 132.206 5.592 132.734 4.47C133.174 3.48 134.472 2.776 134.802 2.138C135 1.786 135.132 1.368 134.912 1.258L135.022 1.104C135.616 1.258 136.584 1.698 136.98 2.138C137.134 2.314 137.244 2.446 136.914 2.644C136.914 2.644 136.716 2.776 136.496 2.864C137.288 3.04 139.862 3.744 139.928 6.142C140.016 9.046 136.386 10.586 134.098 9.134ZM134.45 4.206C134.01 4.69 133.416 5.922 133.988 7.066C134.604 8.232 136.496 8.452 137.486 7.682C138.476 6.89 139.026 4.206 135.726 3.304C135.726 3.304 135.088 3.546 134.45 4.206ZM142.502 10.322C144.856 10.3 145.186 10.74 145.186 11.246C145.186 11.708 144.944 11.994 143.646 11.928C142.216 11.84 139.114 11.708 135.044 12.06C132.624 12.28 129.17 13.006 128.312 13.248C127.718 13.358 127.542 13.49 126.948 13.116L125.694 12.346L125.738 12.17C133.988 10.674 139.444 10.322 142.502 10.322ZM138.498 20.398C140.566 20.178 140.83 20.574 140.83 21.124C140.83 21.674 140.72 21.982 138.696 21.938C137.442 21.916 135.44 21.894 134.538 21.828C133.306 21.762 133.064 21.476 132.8 20.09C132.69 19.474 132.646 19.012 132.536 18.308C132.294 16.988 132.03 16.944 131.788 16.746L131.876 16.416C131.876 16.416 132.69 16.46 133.438 16.548C133.878 16.658 133.966 16.834 134.01 17.208L137.992 16.746C138.102 15.778 138.08 15.536 138.102 14.524L137.772 14.59L134.274 15.228C133.548 15.316 132.8 15.426 132.426 15.03C132.25 14.81 131.854 14.436 131.744 14.238L131.854 14.084C133.57 14.04 136.54 13.622 136.54 13.622C136.54 13.622 137.882 13.468 138.234 13.292C138.234 13.292 139.136 13.446 139.752 13.578C140.434 13.732 140.324 13.908 140.258 14.216C140.214 14.414 139.444 15.822 139.004 16.614C139.95 16.57 140.06 16.966 140.016 17.362C139.95 18.176 138.85 18.088 138.124 18.088L134.076 18.22L134.186 20.09C134.186 20.486 134.604 20.574 134.89 20.552C135.176 20.53 137.772 20.464 138.498 20.398ZM167.598 9.332C169.468 9.354 171.426 10.366 170.568 11.598C170.062 12.302 168.214 11.356 166.96 10.916C166.652 10.806 166.278 10.696 165.948 10.586C165.882 12.808 165.464 15.624 165.288 16.218H165.002C164.76 15.338 164.254 13.468 164.254 11.356C164.232 9.618 164.254 4.888 164.254 2.864C164.254 1.874 163.594 1.346 162.736 1.06L162.802 0.795999C163.682 0.751999 165.178 1.038 165.596 1.214C165.904 1.346 166.102 1.5 166.058 1.962C166.036 2.248 166.036 2.336 166.036 2.578C166.036 4.646 166.014 7.176 165.97 9.354C166.432 9.332 167.004 9.332 167.598 9.332ZM158.49 12.808C157.72 12.83 156.466 12.808 155.762 12.808C155.74 13.05 155.696 13.116 155.41 13.16L154.816 13.204C154.288 9.706 154.134 7.594 153.98 6.912C153.65 5.746 153.1 5.416 153.1 5.416L153.188 5.108C153.188 5.108 154.574 5.02 155.322 5.746L158.864 5.284C158.864 5.284 159.832 5.24 160.294 4.756C160.294 4.756 161.02 4.954 161.658 5.108C162.296 5.262 162.252 5.614 162.208 5.922C162.12 6.142 161.482 9.42 161.13 11.224C161.9 11.444 161.922 12.236 161.68 12.522C161.306 12.984 159.612 12.786 158.49 12.808ZM160.096 6.428L159.634 6.494C159.634 6.494 157.148 7 156.312 7.154C156.136 7.198 155.982 7.242 155.806 7.264C155.872 8.848 155.85 10.586 155.784 11.686C156.796 11.598 158.842 11.4 160.052 11.246C160.096 9.618 160.052 7.396 160.096 6.428ZM164.628 19.826C165.838 19.716 166.344 20.024 166.256 20.64C166.19 21.146 166.036 21.366 164.364 21.366C163.198 21.366 161.284 21.388 160.272 21.322C159.128 21.234 158.666 20.728 158.622 19.43L158.512 18.242C158.38 15.668 157.214 15.404 157.214 15.404L157.258 15.118C157.258 15.118 158.578 15.184 159.26 15.316C159.876 15.558 159.964 15.58 159.986 16.24L160.052 19.716C160.052 20.024 160.25 20.134 160.514 20.112C160.888 20.068 163.748 19.914 164.628 19.826ZM176.874 7.132C176.852 5.658 175.532 5.196 175.532 5.196L175.62 4.91C175.62 4.91 176.874 4.932 177.534 5.108C177.82 5.196 178.04 5.284 178.216 5.416C178.304 5.416 178.392 5.438 178.48 5.438C179.492 5.482 184.464 4.888 184.684 4.8C185.608 4.69 185.982 5.086 185.916 5.526C185.894 5.856 185.674 6.142 185.102 6.208C183.76 6.384 179.954 6.758 178.898 6.846H178.568C178.568 8.078 178.502 10.278 178.524 10.564C178.546 10.916 178.788 10.916 179.052 10.916C179.316 10.916 181.78 10.674 183.364 10.432C185.014 10.168 185.652 10.146 185.806 10.916C185.96 11.818 185.388 11.928 183.166 12.038C181.252 12.126 179.36 12.28 178.678 12.302C177.402 12.324 177.006 11.84 176.962 10.586L176.874 7.132ZM188.028 15.096C190.382 15.074 190.712 15.514 190.712 16.02C190.712 16.482 190.47 16.746 189.172 16.68C187.742 16.592 184.64 16.482 180.57 16.812C178.15 17.032 174.696 17.78 173.838 18C173.244 18.11 173.068 18.264 172.474 17.89C171.968 17.56 171.44 17.23 171.22 17.098L171.264 16.944C179.514 15.426 184.97 15.096 188.028 15.096ZM197.86 7.748L197.728 5.196C197.706 3.722 196.32 3.26 196.32 3.26L196.43 2.974C196.43 2.974 197.662 2.996 198.322 3.172C198.916 3.348 199.29 3.568 199.334 4.162C199.4 4.822 199.29 7.352 199.312 7.726C199.334 8.078 199.576 8.144 199.84 8.122C200.126 8.122 202.942 7.726 204.504 7.33C206.088 6.934 206.88 7.286 206.924 7.902C207.012 8.54 206.792 8.782 204.878 9.002C202.964 9.178 200.148 9.486 199.466 9.464C198.322 9.442 197.904 9.002 197.86 7.748ZM191.458 12.984L191.502 12.83C199.752 11.334 205.208 10.982 208.266 10.982C210.62 10.96 210.95 11.4 210.95 11.906C210.95 12.368 210.708 12.632 209.41 12.566C207.98 12.478 204.878 12.368 200.808 12.72C198.388 12.918 194.934 13.666 194.076 13.886C193.482 13.996 193.306 14.15 192.712 13.776L191.458 12.984ZM198.432 19.496L198.146 16.372C198.036 15.25 197.156 15.096 197.156 15.096L197.178 14.788C197.178 14.788 198.41 14.788 199.048 15.008C199.664 15.184 199.752 15.25 199.752 15.91C199.752 16.526 199.862 19.65 199.862 19.65C199.862 19.98 200.148 20.09 200.412 20.068L204.878 19.804C206.792 19.628 207.21 19.826 207.21 20.42C207.21 21.102 207.034 21.344 204.614 21.322C203.448 21.322 200.786 21.278 200.104 21.256C198.916 21.234 198.564 20.75 198.432 19.496ZM220.338 18.176H220.008C220.14 15.206 220.338 8.672 220.184 5.57C220.052 3.304 218.82 3.106 218.82 3.106L218.952 2.82C218.952 2.82 220.448 2.82 221.108 3.018C221.592 3.172 221.834 3.282 221.9 3.766C222.868 3.238 224.21 2.842 225.53 2.996C227.224 3.194 229.402 4.756 228.962 7.66C228.478 10.828 224.738 11.488 222.978 11.422L222.56 10.63C226.74 10.498 227.224 8.276 227.246 7.088C227.29 5.064 225.75 3.898 224.32 3.942C223.242 3.986 222.45 4.294 221.9 4.822L221.702 17.912C221.218 18 220.8 18.11 220.338 18.176ZM231.056 18.132C230.704 18.22 230.198 18.154 229.824 18.066C231.936 13.578 233.85 7.352 235.874 3.084C236.072 2.688 236.468 2.622 236.842 2.644L237.612 2.688C237.766 3.81 238.316 5.68 239.306 10.212C239.614 11.664 240.274 14.81 241.132 16.13C241.594 16.834 242.276 16.922 243.574 17.098L243.508 17.802L241 18.066C240.648 18.11 240.428 18.044 240.208 17.802C239.768 17.318 239.064 16.218 238.536 14.15L238.03 12.148C235.786 12.126 234.928 12.104 233.696 12.148C233.3 13.204 232.794 14.81 232.31 16.086C231.892 17.208 231.584 17.956 231.056 18.132ZM234.092 10.982L237.788 10.938L236.424 4.778C235.764 6.582 234.994 8.606 234.092 10.982ZM248.607 4.47L246.033 4.58C245.835 4.58 245.527 4.602 245.439 4.58C245.263 4.536 245.065 4.426 244.867 4.294L243.701 3.48L243.855 3.084L245.967 3.238C248.189 3.238 251.291 3.194 253.161 2.996L254.965 3.854L254.811 4.316L250.367 4.404L250.235 17.89C249.751 17.978 249.289 18.088 248.827 18.154H248.431C248.563 15.316 248.607 7.924 248.607 4.47Z" fill="#2C2C2C"/>
<defs>
<linearGradient id="paint0_linear_70_47" x1="-34" y1="12" x2="169.245" y2="12" gradientUnits="userSpaceOnUse">
<stop stop-color="#2C2C2C"/>
<stop offset="1" stop-color="white"/>
</linearGradient>
</defs>
</svg>
