<svg width="45" height="23" viewBox="0 0 45 23" fill="none" xmlns="http://www.w3.org/2000/svg">
<path d="M44.5 11.5C44.5 14.39 42.1969 17.1346 38.1823 19.1865C34.1947 21.2247 28.6509 22.5 22.5 22.5C16.3491 22.5 10.8053 21.2247 6.81765 19.1865C2.8031 17.1346 0.5 14.39 0.5 11.5C0.5 8.61001 2.8031 5.86537 6.81765 3.81349C10.8053 1.77534 16.3491 0.5 22.5 0.5C28.6509 0.5 34.1947 1.77534 38.1823 3.81349C42.1969 5.86537 44.5 8.61001 44.5 11.5Z" stroke="#555555"/>
<path fill-rule="evenodd" clip-rule="evenodd" d="M22.4793 3.8147e-06C19.616 3.16706 17.5356 6.74618 19.5 8.95612C21.9154 11.6734 30.1801 7.15505 36.8114 2.62575C37.5712 2.9462 38.2891 3.29164 38.9603 3.65961C38.2303 8.42669 35.4929 14.1772 31.0755 19.4683C30.1336 20.5965 29.1575 21.6533 28.1604 22.633C26.4476 22.8599 24.6555 22.9862 22.8098 22.9989C26.5455 18.7827 30.4495 13.1144 26.5 12.4561C22.4027 11.7732 14.128 16.8708 8.8905 20.6585C7.76865 20.2224 6.72937 19.7336 5.78673 19.1994C6.78209 14.7172 9.4082 9.53311 13.4198 4.72806C14.7954 3.0804 16.2439 1.58507 17.7242 0.25958C19.2569 0.0902597 20.8478 0.000755401 22.4793 3.8147e-06Z" fill="#555555"/>
</svg>
